:version 1.10
:name ASF
:units
  mass 1
  length 1
  angle deg
:documentation
  ASF file generated by Kaydara
:root
  axis xyz
  order  tx ty tz rx ry rz
  position 0 0 0
  orientation 0 0 0
:bonedata
  begin
    id 1
    name RightUpLegDummy
    direction -1 2.30186e-007 8.31532e-007
    length 4.46685
    axis 0 0 0 xyz
  end
  begin
    id 2
    name RightUpLeg
    direction -2.30187e-007 -1 1.24343e-010
    length 16.4045
    axis -3.49089 -0.000906625 0.000286804 xyz
    dof rx ry rz
  end
  begin
    id 3
    name RightLeg
    direction -2.30181e-007 -1 -4.17157e-009
    length 17.5097
    axis 3.68512 0.0193738 -0.131023 xyz
    dof rx ry rz
  end
  begin
    id 4
    name RightFoot
    direction 8.31421e-007 -4.51202e-011 1
    length 6.49508
    axis 4.81691e-005 -0.120479 -0.188788 xyz
    dof rx ry rz
  end
  begin
    id 5
    name RightToes
    direction 0.00124746 -0.014064 0.9999
    length 3.85082
    axis 0.000481921 0.542163 -0.142578 xyz
    dof rx ry rz
  end
  begin
    id 6
    name SpineDummy
    direction 0.0717043 0.9409 -0.331007
    length 10.0032
    axis 0 0 0 xyz
  end
  begin
    id 7
    name Spine
    direction 2.30186e-007 1 4.58806e-011
    length 9.84055
    axis -0.001389 0.000121418 2.40972e-006 xyz
    dof rx ry rz
  end
  begin
    id 8
    name Spine1
    direction 0 0 0
    length 0
    axis -0.001389 0.000121451 1.30017e-006 xyz
    dof rx ry rz
  end
  begin
    id 9
    name HEadDummy
    direction -0.00347485 0.950688 -0.310128
    length 8.00997
    axis -0.001389 0.000121451 1.30017e-006 xyz
  end
  begin
    id 10
    name HEad
    direction -0.0222688 0.980941 0.193023
    length 5.12695
    axis -0.001389 0.000121451 1.30017e-006 xyz
    dof rx ry rz
  end
  begin
    id 11
    name LeftShoulder1Dummy
    direction 0.988871 0.146793 -0.0242004
    length 3.5792
    axis -0.001389 0.000121451 1.30017e-006 xyz
  end
  begin
    id 12
    name LeftShoulder1
    direction 0.993832 0.108932 0.020779
    length 4.16823
    axis -0.001389 0.000121451 1.30017e-006 xyz
    dof rx ry rz
  end
  begin
    id 13
    name LeftArm
    direction 1 3.44807e-006 -8.31404e-007
    length 9.91437
    axis -23.1894 0.134784 0.967509 xyz
    dof rx ry rz
  end
  begin
    id 14
    name LeftForeArm
    direction 1 3.44842e-006 -8.31581e-007
    length 9.08575
    axis -9.91835 -0.06569 -0.177793 xyz
    dof rx ry rz
  end
  begin
    id 15
    name LeftHand
    direction 0.992938 -0.0411636 0.11126
    length 5.32135
    axis -0.00960232 -0.00340091 0.185173 xyz
    dof rx ry rz
  end
  begin
    id 16
    name RightShoulderDummy
    direction -0.988871 0.146793 -0.0241962
    length 3.5792
    axis -0.001389 0.000121451 1.30017e-006 xyz
  end
  begin
    id 17
    name RightShoulder
    direction -0.993832 0.108933 0.0207785
    length 4.16823
    axis 0.215806 0.000203643 -0.0068026 xyz
    dof rx ry rz
  end
  begin
    id 18
    name RightArm
    direction -1 3.90912e-006 8.31284e-007
    length 9.91437
    axis -23.2009 -0.134239 -0.964101 xyz
    dof rx ry rz
  end
  begin
    id 19
    name RightForeArm
    direction -1 3.90882e-006 8.31502e-007
    length 9.08575
    axis -9.92322 0.0658061 0.178867 xyz
    dof rx ry rz
  end
  begin
    id 20
    name RightHand
    direction -0.992843 -0.0414603 0.112003
    length 5.28593
    axis -0.00960638 0.00330671 -0.185228 xyz
    dof rx ry rz
  end
  begin
    id 21
    name LeftUpLegDummy
    direction 1 -2.30186e-007 -8.31532e-007
    length 4.46685
    axis 0 0 0 xyz
  end
  begin
    id 22
    name LeftUpLeg
    direction -2.30187e-007 -1 6.00931e-010
    length 16.4045
    axis -3.48766 0.00143442 -0.000524262 xyz
    dof rx ry rz
  end
  begin
    id 23
    name LeftLeg
    direction -2.30187e-007 -1 1.6669e-009
    length 17.5097
    axis 3.68178 -0.00654042 -0.000285133 xyz
    dof rx ry rz
  end
  begin
    id 24
    name LeftFoot
    direction 8.31532e-007 -4.54478e-011 1
    length 6.49508
    axis 1.87233e-006 4.66016e-005 -8.6538e-006 xyz
    dof rx ry rz
  end
  begin
    id 25
    name LeftToes
    direction 0.00818058 -0.00485161 0.999955
    length 3.85048
    axis 1.06247e-005 4.65869e-005 -8.65513e-006 xyz
    dof rx ry rz
  end
:hierarchy
  begin
    root RightUpLegDummy SpineDummy LeftUpLegDummy
    RightUpLegDummy RightUpLeg
    RightUpLeg RightLeg
    RightLeg RightFoot
    RightFoot RightToes
    SpineDummy Spine
    Spine Spine1
    Spine1 HEadDummy LeftShoulder1Dummy RightShoulderDummy
    HEadDummy HEad
    LeftShoulder1Dummy LeftShoulder1
    LeftShoulder1 LeftArm
    LeftArm LeftForeArm
    LeftForeArm LeftHand
    RightShoulderDummy RightShoulder
    RightShoulder RightArm
    RightArm RightForeArm
    RightForeArm RightHand
    LeftUpLegDummy LeftUpLeg
    LeftUpLeg LeftLeg
    LeftLeg LeftFoot
    LeftFoot LeftToes
  end

:SAMPLES-PER-SECOND 30
:FULLY-SPECIFIED
:DEGREES
48
root  -65.8275 32.2898 24.6999 4.246 50.5832 -2.12676
RightUpLeg  -26.3728 -6.68346 -14.4616
RightLeg  54.1013 9.69576 11.4634
RightFoot  6.51252 -0.0976309 2.09322
RightToes  -52.8547 -0.328425 -0.375659
Spine  7.75248 -3.41456 0.658665
Spine1  14.726 -5.85463 -1.29915
HEad  17.7575 41.8431 -12.0666
LeftShoulder1  0 -2.42657e-020 -4.95415e-022
LeftArm  -31.026 5.54967 -64.2809
LeftForeArm  46.2909 -23.4741 -4.36525
LeftHand  0.631912 -10.1362 -7.49114
RightShoulder  0 2.42657e-020 1.07489e-018
RightArm  -47.9392 -1.8286 77.8716
RightForeArm  145.181 76.1287 133.553
RightHand  1.41174 23.7469 7.07914
LeftUpLeg  -28.7496 14.6921 9.55319
LeftLeg  33.1649 -7.21894 -4.068
LeftFoot  3.91895 0.0277693 -0.599498
LeftToes  -31.5245 2.01279e-006 2.21547e-008
49
root  -66.3602 31.7418 24.4944 3.69287 51.7749 -4.38498
RightUpLeg  -31.5515 -5.15252 -14.7152
RightLeg  58.4888 12.183 16.5996
RightFoot  2.62993 -0.026258 1.52102
RightToes  -59.9124 -0.393719 -0.397991
Spine  8.86879 -3.1474 0.69942
Spine1  16.4912 -5.05288 -1.82242
HEad  15.9816 40.5326 -12.6218
LeftShoulder1  0 -2.42657e-020 -4.95415e-022
LeftArm  -30.2847 0.950628 -62.8704
LeftForeArm  46.5566 -23.2873 -4.32565
LeftHand  0.634196 -10.1545 -7.50394
RightShoulder  0 2.42657e-020 1.07489e-018
RightArm  -38.8515 4.071 76.0922
RightForeArm  159.5 74.0048 141.324
RightHand  0.766008 21.4331 4.41725
LeftUpLeg  -34.4041 14.431 10.7105
LeftLeg  38.8615 -7.40499 -5.19602
LeftFoot  2.35516 0.0167107 -0.411554
LeftToes  -31.642 2.01279e-006 2.21547e-008
50
root  -66.9343 31.076 24.3881 3.09285 52.6586 -6.98418
RightUpLeg  -35.8089 -4.16055 -14.9431
RightLeg  57.9269 11.6118 15.5585
RightFoot  -1.39838 -0.00247091 0.175166
RightToes  -55.945 -0.356673 -0.386427
Spine  9.9491 -2.60843 0.750447
Spine1  18.1357 -3.98745 -1.75011
HEad  14.3717 38.526 -13.1405
LeftShoulder1  0 -2.42657e-020 -4.95415e-022
LeftArm  -30.9073 -4.19004 -62.5249
LeftForeArm  47.1717 -22.5947 -4.18038
LeftHand  0.554996 -9.88253 -6.78744
RightShoulder  0 2.42657e-020 1.07489e-018
RightArm  -29.9439 10.1202 74.3614
RightForeArm  162.248 75.2955 137.016
RightHand  0.322611 21.5842 2.06294
LeftUpLeg  -40.3359 14.431 12.2121
LeftLeg  44.6924 -7.46024 -6.44807
LeftFoot  0.877161 0.00569043 -0.233138
LeftToes  -30.8632 2.01279e-006 2.21547e-008
51
root  -67.5081 30.37 24.3981 2.04547 53.1833 -9.47014
RightUpLeg  -38.5132 -2.65278 -15.3849
RightLeg  54.3913 10.8039 12.8534
RightFoot  -4.45234 -0.0373124 -0.582361
RightToes  -52.5619 -0.325779 -0.37456
Spine  11.3104 -1.7182 0.679545
Spine1  20.2543 -2.51757 -1.29129
HEad  13.2073 35.68 -13.3445
LeftShoulder1  0 -2.42657e-020 -4.95415e-022
LeftArm  -32.1386 -10.2475 -63.1862
LeftForeArm  48.0779 -21.2645 -3.90594
LeftHand  0.395332 -9.37138 -5.19421
RightShoulder  0 2.42657e-020 1.07489e-018
RightArm  -22.6397 16.6451 72.9551
RightForeArm  145.781 78.8626 114.993
RightHand  -0.469111 20.337 -2.2457
LeftUpLeg  -45.2872 14.2317 14.1279
LeftLeg  49.9368 -6.80412 -7.06365
LeftFoot  -0.223521 -0.000393615 -0.148438
LeftToes  -33.613 2.01279e-006 2.21547e-008
52
root  -68.1215 29.6287 24.5687 1.52564 53.6287 -11.309
RightUpLeg  -40.9901 -1.2212 -15.9936
RightLeg  51.3055 12.4741 13.2812
RightFoot  -7.89096 -0.146661 -1.74878
RightToes  -53.2763 -0.332244 -0.372909
Spine  12.3826 -0.734883 0.58449
Spine1  21.8261 -1.20038 -0.159615
HEad  12.7712 32.195 -12.9158
LeftShoulder1  0 -2.42657e-020 -4.95415e-022
LeftArm  -33.6232 -15.462 -65.3741
LeftForeArm  49.5345 -20.1317 -3.67508
LeftHand  0.22625 -8.68547 -3.35125
RightShoulder  0 2.42657e-020 1.07489e-018
RightArm  -18.1581 23.3533 73.1227
RightForeArm  92.4355 78.249 58.7249
RightHand  -0.397937 22.0545 -1.67228
LeftUpLeg  -49.7881 14.4236 15.8987
LeftLeg  54.4708 -6.51646 -7.92734
LeftFoot  -1.03937 -0.00150627 -0.166072
LeftToes  -34.8876 2.01279e-006 2.21547e-008
53
root  -68.83 28.9072 24.8951 1.3608 54.8069 -12.8861
RightUpLeg  -43.8615 -0.87969 -15.9417
RightLeg  50.8369 13.1412 13.7378
RightFoot  -11.5268 -0.337014 -2.96076
RightToes  -53.7769 -0.336793 -0.375843
Spine  13.2706 0.259597 0.654667
Spine1  23.1928 0.591061 0.85605
HEad  12.0457 28.9471 -13.2049
LeftShoulder1  0 -2.42657e-020 -4.95415e-022
LeftArm  -33.7221 -19.52 -68.5812
LeftForeArm  47.8138 -20.6548 -3.78298
LeftHand  0.0926909 -8.01628 -1.6942
RightShoulder  0 2.42657e-020 1.07489e-018
RightArm  -14.7814 30.929 74.5038
RightForeArm  58.7096 64.7535 22.0423
RightHand  -0.7962 21.7445 -3.77475
LeftUpLeg  -54.1686 14.7007 17.4584
LeftLeg  57.827 -6.82587 -9.34888
LeftFoot  -1.0621 -0.00235466 -0.254047
LeftToes  -35.1239 2.01279e-006 2.21547e-008
54
root  -69.5211 28.1328 25.5024 2.00216 57.654 -12.9547
RightUpLeg  -46.9724 -2.78521 -15.5019
RightLeg  55.9893 12.3162 15.3816
RightFoot  -15.0907 -0.570455 -3.92735
RightToes  -54.1129 -0.339855 -0.380227
Spine  15.2183 1.89009 0.778268
Spine1  26.3683 5.33885 -0.710689
HEad  10.5209 26.1826 -13.76
LeftShoulder1  0 -2.42657e-020 -4.95415e-022
LeftArm  -31.8201 -25.3086 -71.9796
LeftForeArm  42.6759 -22.352 -4.13677
LeftHand  0.0161701 -7.85145 -0.60612
RightShoulder  0 2.42657e-020 1.07489e-018
RightArm  -15.2293 38.813 76.4993
RightForeArm  51.3078 45.5805 10.3538
RightHand  -1.56634 22.2153 -7.59781
LeftUpLeg  -58.1338 14.5097 17.9891
LeftLeg  60.1711 -7.70557 -11.4576
LeftFoot  -0.468517 -0.00154497 -0.377877
LeftToes  -37.7768 2.01279e-006 2.21547e-008
55
root  -70.2983 27.4542 26.38 3.3812 61.7627 -12.2908
RightUpLeg  -49.6297 -5.17989 -13.9895
RightLeg  63.5731 11.0673 18.2322
RightFoot  -17.2158 -0.76242 -4.65603
RightToes  -55.9569 -0.356784 -0.386465
Spine  17.0457 3.41088 1.09661
Spine1  29.0059 10.2326 -2.57179
HEad  10.417 22.6776 -13.3848
LeftShoulder1  0 -2.42657e-020 -4.95415e-022
LeftArm  -27.9428 -29.6878 -76.0575
LeftForeArm  36.9171 -24.5666 -4.6088
LeftHand  0.0011836 -6.97 -0.389768
RightShoulder  0 2.42657e-020 1.07489e-018
RightArm  -21.2045 46.4535 79.312
RightForeArm  55.2562 27.6291 5.25498
RightHand  -1.71194 23.792 -7.74555
LeftUpLeg  -61.8372 14.2023 17.9401
LeftLeg  60.8409 -9.3323 -14.1129
LeftFoot  0.965633 0.00685231 -0.813143
LeftToes  -41.5154 2.01279e-006 2.21547e-008
56
root  -71.1905 27.0738 27.455 5.07014 66.5375 -11.0043
RightUpLeg  -50.6306 -7.70442 -11.2337
RightLeg  68.9068 8.93067 18.464
RightFoot  -22.4503 -1.27928 -6.06214
RightToes  -43.6573 -0.248338 -0.334836
Spine  18.204 4.38696 1.3787
Spine1  30.5622 13.3844 -3.03214
HEad  10.7817 17.7355 -12.831
LeftShoulder1  0 -2.42657e-020 -4.95415e-022
LeftArm  -24.704 -32.088 -81.0106
LeftForeArm  33.1816 -25.9176 -4.90435
LeftHand  0.0746216 -6.24825 -1.739
RightShoulder  0 2.42657e-020 1.07489e-018
RightArm  -38.9486 53.5879 78.7566
RightForeArm  66.3313 12.1389 2.11268
RightHand  -1.23733 22.7894 -5.76532
LeftUpLeg  -64.0351 13.8344 17.473
LeftLeg  58.7197 -11.9107 -16.4542
LeftFoot  3.05252 0.0443238 -1.66342
LeftToes  -46.2585 2.01279e-006 2.21547e-008
57
root  -72.1722 27.0725 28.6881 7.08041 72.2407 -9.65053
RightUpLeg  -51.4239 -7.21913 -10.4329
RightLeg  70.1758 6.02352 13.4095
RightFoot  -22.9736 -0.851573 -3.81133
RightToes  -47.4806 -0.280827 -0.353364
Spine  18.3773 4.70716 1.58051
Spine1  30.6606 14.2059 -2.30568
HEad  11.2288 12.9084 -12.0379
LeftShoulder1  0 -2.42657e-020 -4.95415e-022
LeftArm  -23.8823 -32.2024 -86.1834
LeftForeArm  30.3056 -26.9264 -5.12909
LeftHand  0.117325 -5.9774 -2.61987
RightShoulder  0 2.42657e-020 1.07489e-018
RightArm  -54.0913 56.3231 71.6856
RightForeArm  70.5474 0.54675 0.0373501
RightHand  1.22703 18.0385 8.09183
LeftUpLeg  -65.1243 12.8579 16.8569
LeftLeg  53.648 -14.1847 -16.2692
LeftFoot  2.11204 0.0276102 -1.49778
LeftToes  -48.6028 2.01279e-006 2.21547e-008
58
root  -73.0443 27.3368 30.0273 9.32455 79.2635 -7.3732
RightUpLeg  -50.9927 -9.38074 -8.29479
RightLeg  71.2267 4.04281 9.5041
RightFoot  -23.9829 -0.583034 -2.36699
RightToes  -41.7679 -0.232758 -0.32489
Spine  18.3372 3.95762 1.73496
Spine1  30.5765 12.6751 -1.89206
HEad  11.6268 9.91676 -10.2904
LeftShoulder1  0 -2.42657e-020 -4.95415e-022
LeftArm  -25.0042 -30.5052 -88.716
LeftForeArm  24.7547 -29.2585 -5.66268
LeftHand  0.13991 -5.00878 -3.57291
RightShoulder  0 2.42657e-020 1.07489e-018
RightArm  -45.8241 53.7643 71.8398
RightForeArm  61.733 -0.183209 -0.0689644
RightHand  1.86349 13.5722 15.9425
LeftUpLeg  -64.8321 10.8891 15.8602
LeftLeg  46.3232 -11.156 -10.1089
LeftFoot  -1.29059 -0.00413502 -0.36714
LeftToes  -42.8399 2.01279e-006 2.21547e-008
59
root  -73.7759 27.732 31.3185 16.2591 85.6621 -0.650303
RightUpLeg  -50.3174 -12.3231 -5.96403
RightLeg  70.833 2.87146 6.60401
RightFoot  -24.8001 -0.390751 -1.39959
RightToes  -36.8471 -0.193799 -0.296628
Spine  17.7587 2.94608 1.57821
Spine1  29.6664 10.7836 -2.72093
HEad  11.9209 9.16724 -7.96708
LeftShoulder1  0 -2.42657e-020 -4.95415e-022
LeftArm  -27.7357 -27.3467 -88.8172
LeftForeArm  18.2853 -32.2784 -6.38933
LeftHand  0.114534 -3.24208 -4.42488
RightShoulder  0 2.42657e-020 1.07489e-018
RightArm  -45.8051 49.5358 75.4358
RightForeArm  62.8664 1.08895 0.151088
RightHand  1.68353 13.0115 15.0605
LeftUpLeg  -64.401 11.6332 12.5832
LeftLeg  41.1999 -4.77952 -3.66614
LeftFoot  -0.0272755 -0.000132044 -0.554689
LeftToes  -24.7586 2.01279e-006 2.21547e-008
60
root  -74.4202 28.1544 32.5212 153.444 88.4389 136.639
RightUpLeg  -49.5575 -14.2757 -3.89073
RightLeg  69.8771 1.62665 3.51451
RightFoot  -25.1252 -0.148184 -0.287427
RightToes  -32.4411 -0.161087 -0.268569
Spine  17.2435 1.96387 1.22105
Spine1  28.8265 8.70159 -3.67207
HEad  11.9946 8.5954 -5.61116
LeftShoulder1  0 -2.42657e-020 -4.95415e-022
LeftArm  -30.5226 -24.4818 -87.6663
LeftForeArm  15.4163 -34.3846 -6.92518
LeftHand  0.0780117 -2.14481 -4.55032
RightShoulder  0 2.42657e-020 1.07489e-018
RightArm  -47.6779 44.7304 78.8224
RightForeArm  66.1384 2.73507 0.431856
RightHand  1.36267 16.3167 9.85781
LeftUpLeg  -62.7801 10.5454 11.186
LeftLeg  42.1153 -3.27169 -2.59876
LeftFoot  3.51739 0.0206922 -0.673913
LeftToes  -19.8948 2.01279e-006 2.21547e-008
61
root  -74.9211 28.6568 33.6102 178.935 83.5937 162.286
RightUpLeg  -48.3908 -15.7751 -2.00923
RightLeg  67.9628 0.37752 0.63631
RightFoot  -25.0849 0.0767561 0.722583
RightToes  -28.0283 -0.130582 -0.238031
Spine  16.8461 1.09961 0.706727
Spine1  28.2199 6.27159 -3.85627
HEad  12.0545 6.91763 -2.74603
LeftShoulder1  0 -2.42657e-020 -4.95415e-022
LeftArm  -32.8642 -22.7478 -86.032
LeftForeArm  17.6394 -34.8853 -7.05787
LeftHand  0.120923 -2.50553 -5.91163
RightShoulder  0 2.42657e-020 1.07489e-018
RightArm  -49.2425 39.3236 81.0053
RightForeArm  64.7314 5.36886 0.899007
RightHand  0.74591 20.8839 4.41717
LeftUpLeg  -60.5111 8.08605 10.4943
LeftLeg  47.0158 -3.46545 -3.27075
LeftFoot  6.63952 0.0516886 -0.891088
LeftToes  -19.9094 2.01279e-006 2.21547e-008
